# xmcd
# 
# Track frame offsets:
#     150
#     20630
#     44644
#     62729
#     79093
#     97951
#     121885
#     142314
#     158092
#     171556
#     190098
#     202378
#     214521
#     240217
# 
# Disc length: 3406
# 
# Revision: 1
# Processed by: cddbd v1.5.2PL0 Copyright (c) Steve Scherf et al.
# Submitted via: fre:ac v1.0.17
# 
DISCID=ca0d4c0e
DTITLE=Kris Kristofferson - The Austin Sessions
DYEAR=1999
DGENRE=Country
TTITLE0=Me And Bobby McGee
TTITLE1=Sunday Mornin' Coming Down
TTITLE2=For The Good Times
TTITLE3=The Silver Tongued Devil
TTITLE4=Help Me Make It Through The Night
TTITLE5=Loving Her Was Easier (Than Anything I'll Ever Do Again)
TTITLE6=To Beat The Devil
TTITLE7=Who's To Bless And Who's To Blame
TTITLE8=Why Me?
TTITLE9=Nobody Wins
TTITLE10=The Pilrim: Chapter 33
TTITLE11=Please Don't Tell Me How The Story Ends
TTITLE12=Best Of All Possible Worlds
TTITLE13=Jody And The Kid
EXTD=
EXTT0=
EXTT1=
EXTT2=
EXTT3=
EXTT4=
EXTT5=
EXTT6=
EXTT7=
EXTT8=
EXTT9=
EXTT10=
EXTT11=
EXTT12=
EXTT13=
PLAYORDER=
